<svg width="40px" height="32px" viewBox="0 0 40 32" version="1.1" xmlns="http://www.w3.org/2000/svg" xmlns:xlink="http://www.w3.org/1999/xlink">
    <g id="Page-1" stroke="none" stroke-width="1" fill="none" fill-rule="evenodd">
        <g id="climate-icons-hosseinian" transform="translate(-192.000000, -184.000000)">
            <g id="Partly-Cloudy-2" transform="translate(188.000000, 176.000000)">
                <g id="Partly-Cloudy">
                    <rect id="frame" x="0" y="0" width="48" height="48"></rect>
                    <path d="M9.39365566,25.2069199 C10.8372041,26.6251854 12.8164401,27.5 15,27.5 C19.418278,27.5 23,23.918278 23,19.5 C23,18.7967476 22.909258,18.1146892 22.738844,17.4648945 C24.558222,15.0610569 27.4969236,13.5 30.8125,13.5 C36.3353475,13.5 40.8125,17.8313847 40.8125,23.1744186 C40.8125,24.1308381 40.6690426,25.0548423 40.4018094,25.9273903 C41.5108167,26.5299331 42.4098904,27.4003826 43.031949,28.4738413 C43.6548634,29.5487767 44,30.8272802 44,32.244186 C44,33.6610919 43.6548634,34.9395954 43.031949,36.0145308 C42.4090346,37.0894662 41.5083425,37.9608335 40.3972314,38.563467 C39.2861203,39.1661004 37.9645902,39.5 36.5,39.5 L11.5,39.5 C10.0354098,39.5 8.71387975,39.1661004 7.60276864,38.563467 C6.49165753,37.9608335 5.59096537,37.0894662 4.96805099,36.0145308 C4.3451366,34.9395954 4,33.6610919 4,32.244186 C4,30.8272802 4.3451366,29.5487767 4.96805099,28.4738413 C5.59096537,27.3989059 6.49165753,26.5275386 7.60276864,25.9249051 C7.95321793,25.7348319 8.32459967,25.5714923 8.7148004,25.436931 C8.70980645,25.4037053 9.00292634,25.3294154 9.39365566,25.2069199 Z" id="shape" fill="#4A90E2"></path>
                    <circle id="shape" fill="#F8CE1C" cx="15" cy="19.5" r="6"></circle>
                    <path d="M15,8.5 C15.5522847,8.5 16,8.94771525 16,9.5 L16,11.5 C16,12.0522847 15.5522847,12.5 15,12.5 C14.4477153,12.5 14,12.0522847 14,11.5 L14,9.5 C14,8.94771525 14.4477153,8.5 15,8.5 Z M22.0706637,11.0735111 C22.4937384,11.4285129 22.5489223,12.0592685 22.1939205,12.4823432 L20.9083453,14.0144321 C20.5533435,14.4375067 19.9225879,14.4926907 19.4995133,14.1376889 C19.0764386,13.7826871 19.0212546,13.1519315 19.3762564,12.7288568 L20.6618317,11.196768 C21.0168334,10.7736933 21.647589,10.7185093 22.0706637,11.0735111 Z M5.47372056,25 C5.19757818,24.5217074 5.36145334,23.910117 5.83974596,23.6339746 L7.57179677,22.6339746 C8.05008939,22.3578322 8.6616798,22.5217074 8.93782217,23 C9.21396455,23.4782926 9.05008939,24.089883 8.57179677,24.3660254 L6.83974596,25.3660254 C6.36145334,25.6421678 5.74986293,25.4782926 5.47372056,25 Z M4.16711472,17.58987 C4.26301796,17.0459757 4.78167634,16.6828072 5.32557065,16.7787105 L7.29518615,17.1260068 C7.83908046,17.2219101 8.20224897,17.7405685 8.10634573,18.2844628 C8.01044249,18.8283571 7.4917841,19.1915256 6.9478898,19.0956223 L4.97827429,18.748326 C4.43437999,18.6524227 4.07121148,18.1337643 4.16711472,17.58987 Z M7.92933629,11.0735111 C8.35241096,10.7185093 8.98316655,10.7736933 9.33816835,11.196768 L10.6237436,12.7288568 C10.9787454,13.1519315 10.9235614,13.7826871 10.5004867,14.1376889 C10.0774121,14.4926907 9.44665647,14.4375067 9.09165468,14.0144321 L7.80607946,12.4823432 C7.45107767,12.0592685 7.50626163,11.4285129 7.92933629,11.0735111 Z" id="shape" fill="#F8CE1C" transform="translate(13.289827, 17.000083) rotate(-360.000000) translate(-13.289827, -17.000083) "></path>
                </g>
            </g>
        </g>
    </g>
</svg>